<?xml version="1.0" encoding="utf-8"?>
<!-- Generator: Adobe Illustrator 16.0.0, SVG Export Plug-In . SVG Version: 6.00 Build 0)  -->
<!DOCTYPE svg PUBLIC "-//W3C//DTD SVG 1.1//EN" "http://www.w3.org/Graphics/SVG/1.1/DTD/svg11.dtd">
<svg version="1.1" id="Layer_1" xmlns="http://www.w3.org/2000/svg" xmlns:xlink="http://www.w3.org/1999/xlink" x="0px" y="0px"
	 width="40px" height="40px" viewBox="0 0 40 40" enable-background="new 0 0 40 40" xml:space="preserve">
<g>
	<polygon fill="#38B7EA" points="20.103,4.472 25.046,14.491 36.104,16.097 28.103,23.896 29.992,34.907 20.103,29.709 
		10.213,34.907 12.102,23.896 4.102,16.097 15.157,14.491 	"/>
	<g>
		<path fill="#38B7EA" d="M17.081,6.239c0.824,1.67,1.647,3.339,2.472,5.009c0.867,1.757,1.599,4.298,3.019,5.718
			c1.493,1.493,4.659,1.352,6.586,1.632c2.005,0.291,4.011,0.582,6.016,0.874c-0.515-1.95-1.029-3.9-1.544-5.85
			c-1.451,1.415-2.902,2.829-4.354,4.243c-1.38,1.345-4.005,3.127-4.548,5.1c-0.534,1.941,0.534,4.976,0.861,6.882
			c0.343,1.997,0.686,3.994,1.028,5.991c1.714-1.317,3.428-2.636,5.142-3.953c-1.794-0.942-3.587-1.885-5.381-2.828
			c-1.71-0.898-4.244-2.848-6.275-2.848c-2.031,0-4.565,1.949-6.275,2.848C12.034,30,10.24,30.942,8.446,31.885
			c1.714,1.317,3.428,2.636,5.142,3.953c0.343-1.997,0.685-3.994,1.028-5.991c0.327-1.906,1.396-4.94,0.861-6.882
			c-0.543-1.973-3.167-3.754-4.548-5.1c-1.451-1.415-2.902-2.829-4.353-4.243c-0.515,1.95-1.03,3.9-1.544,5.85
			c1.842-0.268,3.685-0.535,5.528-0.803c1.896-0.275,4.656-0.155,6.364-1.156c1.791-1.049,2.653-4.087,3.51-5.823
			c0.897-1.817,1.793-3.634,2.691-5.451c1.99-4.033-4.046-7.581-6.044-3.533c-1.648,3.34-3.297,6.68-4.945,10.019
			c0.697-0.536,1.395-1.072,2.091-1.608c-3.685,0.535-7.37,1.071-11.056,1.606c-2.678,0.389-3.26,4.177-1.544,5.85
			c2.667,2.6,5.334,5.198,8,7.798c-0.3-1.135-0.6-2.27-0.9-3.405c-0.63,3.671-1.259,7.342-1.889,11.012
			c-0.516,3.01,2.26,5.468,5.142,3.953c3.296-1.733,6.593-3.466,9.89-5.198c-1.178,0-2.355,0-3.533,0
			c3.297,1.732,6.593,3.465,9.89,5.198c2.882,1.515,5.658-0.943,5.142-3.953c-0.63-3.67-1.26-7.341-1.89-11.012
			c-0.3,1.136-0.6,2.271-0.9,3.405c2.667-2.6,5.334-5.198,8.001-7.798c1.716-1.672,1.134-5.461-1.544-5.85
			c-3.687-0.535-7.372-1.071-11.058-1.606c0.697,0.536,1.395,1.072,2.092,1.608c-1.648-3.339-3.296-6.679-4.943-10.019
			C21.127-1.343,15.09,2.206,17.081,6.239z"/>
	</g>
</g>
</svg>
